<mxfile host="65bd71144e">
    <diagram id="g0DPqn1MRr7vnaiBIRKe" name="Page-1">
        <mxGraphModel dx="1208" dy="602" grid="1" gridSize="10" guides="1" tooltips="1" connect="1" arrows="1" fold="1" page="1" pageScale="1" pageWidth="827" pageHeight="1169" math="0" shadow="0">
            <root>
                <mxCell id="0"/>
                <mxCell id="1" parent="0"/>
                <mxCell id="23" value="POWER AUTOMATE" style="rounded=0;whiteSpace=wrap;html=1;gradientColor=none;fillColor=none;dashed=1;align=center;horizontal=1;verticalAlign=top;" vertex="1" parent="1">
                    <mxGeometry x="520" y="270" width="230" height="320" as="geometry"/>
                </mxCell>
                <mxCell id="4" value="" style="edgeStyle=none;html=1;" edge="1" parent="1" source="2" target="3">
                    <mxGeometry relative="1" as="geometry"/>
                </mxCell>
                <mxCell id="2" value="" style="ellipse;whiteSpace=wrap;html=1;" vertex="1" parent="1">
                    <mxGeometry x="360" y="20" width="120" height="80" as="geometry"/>
                </mxCell>
                <mxCell id="6" value="" style="edgeStyle=none;html=1;" edge="1" parent="1" source="3" target="5">
                    <mxGeometry relative="1" as="geometry"/>
                </mxCell>
                <mxCell id="3" value="CREATE WO" style="whiteSpace=wrap;html=1;" vertex="1" parent="1">
                    <mxGeometry x="360" y="190" width="120" height="60" as="geometry"/>
                </mxCell>
                <mxCell id="8" value="" style="edgeStyle=none;html=1;" edge="1" parent="1" source="5" target="7">
                    <mxGeometry relative="1" as="geometry"/>
                </mxCell>
                <mxCell id="14" value="" style="edgeStyle=orthogonalEdgeStyle;html=1;" edge="1" parent="1" source="5" target="13">
                    <mxGeometry relative="1" as="geometry"/>
                </mxCell>
                <mxCell id="5" value="WO reflect in SP?" style="rhombus;whiteSpace=wrap;html=1;" vertex="1" parent="1">
                    <mxGeometry x="355" y="290" width="130" height="110" as="geometry"/>
                </mxCell>
                <mxCell id="22" value="" style="edgeStyle=orthogonalEdgeStyle;html=1;" edge="1" parent="1" source="7" target="21">
                    <mxGeometry relative="1" as="geometry"/>
                </mxCell>
                <mxCell id="7" value="CREATE MAIN FOLDER" style="whiteSpace=wrap;html=1;" vertex="1" parent="1">
                    <mxGeometry x="570" y="315" width="120" height="60" as="geometry"/>
                </mxCell>
                <mxCell id="9" value="YES" style="text;html=1;align=center;verticalAlign=middle;resizable=0;points=[];autosize=1;strokeColor=none;fillColor=none;" vertex="1" parent="1">
                    <mxGeometry x="480" y="310" width="40" height="20" as="geometry"/>
                </mxCell>
                <mxCell id="12" value="NO" style="text;html=1;align=center;verticalAlign=middle;resizable=0;points=[];autosize=1;strokeColor=none;fillColor=none;" vertex="1" parent="1">
                    <mxGeometry x="305" y="310" width="30" height="20" as="geometry"/>
                </mxCell>
                <mxCell id="16" style="edgeStyle=orthogonalEdgeStyle;html=1;entryX=0;entryY=0.5;entryDx=0;entryDy=0;" edge="1" parent="1" source="13" target="3">
                    <mxGeometry relative="1" as="geometry">
                        <Array as="points">
                            <mxPoint x="210" y="220"/>
                        </Array>
                    </mxGeometry>
                </mxCell>
                <mxCell id="13" value="DEL WO CRETED @ Master file, check for alphabet" style="whiteSpace=wrap;html=1;" vertex="1" parent="1">
                    <mxGeometry x="150" y="315" width="120" height="60" as="geometry"/>
                </mxCell>
                <mxCell id="40" value="" style="edgeStyle=orthogonalEdgeStyle;html=1;" edge="1" parent="1" source="21" target="39">
                    <mxGeometry relative="1" as="geometry"/>
                </mxCell>
                <mxCell id="21" value="CREATE SUBFOLDER" style="whiteSpace=wrap;html=1;" vertex="1" parent="1">
                    <mxGeometry x="570" y="455" width="120" height="60" as="geometry"/>
                </mxCell>
                <mxCell id="28" value="" style="edgeStyle=orthogonalEdgeStyle;html=1;" edge="1" parent="1" source="26" target="27">
                    <mxGeometry relative="1" as="geometry"/>
                </mxCell>
                <mxCell id="26" value="EXTRACT PAPERWORK" style="ellipse;whiteSpace=wrap;html=1;fillColor=none;gradientColor=none;" vertex="1" parent="1">
                    <mxGeometry x="110" y="470" width="120" height="80" as="geometry"/>
                </mxCell>
                <mxCell id="32" value="" style="edgeStyle=orthogonalEdgeStyle;html=1;" edge="1" parent="1" source="27" target="31">
                    <mxGeometry relative="1" as="geometry"/>
                </mxCell>
                <mxCell id="27" value="LOOKUP CP NUM" style="whiteSpace=wrap;html=1;fillColor=none;gradientColor=none;" vertex="1" parent="1">
                    <mxGeometry x="110" y="640" width="120" height="60" as="geometry"/>
                </mxCell>
                <mxCell id="33" style="edgeStyle=orthogonalEdgeStyle;html=1;" edge="1" parent="1" source="31" target="5">
                    <mxGeometry relative="1" as="geometry"/>
                </mxCell>
                <mxCell id="36" value="" style="edgeStyle=orthogonalEdgeStyle;html=1;" edge="1" parent="1" source="31" target="35">
                    <mxGeometry relative="1" as="geometry"/>
                </mxCell>
                <mxCell id="31" value="CP NUM EXIST IN SP?" style="rhombus;whiteSpace=wrap;html=1;fillColor=none;gradientColor=none;" vertex="1" parent="1">
                    <mxGeometry x="360" y="615" width="120" height="110" as="geometry"/>
                </mxCell>
                <mxCell id="34" value="NO" style="text;html=1;align=center;verticalAlign=middle;resizable=0;points=[];autosize=1;strokeColor=none;fillColor=none;" vertex="1" parent="1">
                    <mxGeometry x="384" y="570" width="30" height="20" as="geometry"/>
                </mxCell>
                <mxCell id="45" value="" style="edgeStyle=orthogonalEdgeStyle;html=1;" edge="1" parent="1" source="35" target="44">
                    <mxGeometry relative="1" as="geometry"/>
                </mxCell>
                <mxCell id="35" value="NAVIGATE To string status page" style="whiteSpace=wrap;html=1;fillColor=none;gradientColor=none;" vertex="1" parent="1">
                    <mxGeometry x="270" y="850" width="120" height="60" as="geometry"/>
                </mxCell>
                <mxCell id="37" value="YES" style="text;html=1;align=center;verticalAlign=middle;resizable=0;points=[];autosize=1;strokeColor=none;fillColor=none;" vertex="1" parent="1">
                    <mxGeometry x="485" y="640" width="40" height="20" as="geometry"/>
                </mxCell>
                <mxCell id="39" value="END" style="ellipse;whiteSpace=wrap;html=1;" vertex="1" parent="1">
                    <mxGeometry x="820" y="455" width="120" height="60" as="geometry"/>
                </mxCell>
                <mxCell id="47" value="" style="edgeStyle=orthogonalEdgeStyle;html=1;" edge="1" parent="1" source="44" target="46">
                    <mxGeometry relative="1" as="geometry"/>
                </mxCell>
                <mxCell id="44" value="Bring CP num forward and lookup folder with GP Tool" style="whiteSpace=wrap;html=1;fillColor=none;gradientColor=none;" vertex="1" parent="1">
                    <mxGeometry x="470" y="850" width="120" height="60" as="geometry"/>
                </mxCell>
                <mxCell id="49" value="" style="edgeStyle=orthogonalEdgeStyle;html=1;" edge="1" parent="1" source="46" target="48">
                    <mxGeometry relative="1" as="geometry"/>
                </mxCell>
                <mxCell id="51" value="" style="edgeStyle=orthogonalEdgeStyle;html=1;" edge="1" parent="1" source="46" target="50">
                    <mxGeometry relative="1" as="geometry"/>
                </mxCell>
                <mxCell id="46" value="IF folder filled" style="rhombus;whiteSpace=wrap;html=1;fillColor=none;gradientColor=none;" vertex="1" parent="1">
                    <mxGeometry x="690" y="840" width="80" height="80" as="geometry"/>
                </mxCell>
                <mxCell id="52" style="edgeStyle=orthogonalEdgeStyle;html=1;" edge="1" parent="1" source="48" target="21">
                    <mxGeometry relative="1" as="geometry"/>
                </mxCell>
                <mxCell id="48" value="Green, copy and paste into main folder" style="whiteSpace=wrap;html=1;fillColor=none;gradientColor=none;" vertex="1" parent="1">
                    <mxGeometry x="670" y="690" width="120" height="60" as="geometry"/>
                </mxCell>
                <mxCell id="55" style="edgeStyle=orthogonalEdgeStyle;html=1;" edge="1" parent="1" source="50" target="27">
                    <mxGeometry relative="1" as="geometry"/>
                </mxCell>
                <mxCell id="50" value="Red, inform users" style="whiteSpace=wrap;html=1;fillColor=none;gradientColor=none;" vertex="1" parent="1">
                    <mxGeometry x="670" y="990" width="120" height="60" as="geometry"/>
                </mxCell>
                <mxCell id="53" value="YES" style="text;html=1;align=center;verticalAlign=middle;resizable=0;points=[];autosize=1;strokeColor=none;fillColor=none;" vertex="1" parent="1">
                    <mxGeometry x="740" y="810" width="40" height="20" as="geometry"/>
                </mxCell>
                <mxCell id="54" value="NO" style="text;html=1;align=center;verticalAlign=middle;resizable=0;points=[];autosize=1;strokeColor=none;fillColor=none;" vertex="1" parent="1">
                    <mxGeometry x="745" y="930" width="30" height="20" as="geometry"/>
                </mxCell>
            </root>
        </mxGraphModel>
    </diagram>
</mxfile>